<svg xmlns="http://www.w3.org/2000/svg" width="1024" height="1024"><path fill="#282828" d="M713.59765625 149.41015625C725.69226549 162.68833582 722 182.81801409 722 199l56 1 1 2c2.58016842.94547267 5.12020221 1.78235752 7.75 2.5625l2.171875.66992187C792.59064387 206.34856388 796.21680188 207.3371956 800 208v2l2.66015625.79296875C807.95190841 212.70542655 812.348907 215.87896088 817 219l2.08984375 1.39453125C822.80379361 222.95447481 825.92644071 225.70690076 829 229l2.02734375 2.1171875C846 247.1392094 846 247.1392094 846 253l2 1c1.37046666 3.39637389 2.58870864 6.81499223 3.7890625 10.2734375C852.95396746 268.37631484 852.95396746 268.37631484 856 271c.37890625 2.30078125.37890625 2.30078125.5625 5.3125l.19140625 2.92578125L857 283l.23784518 2.29055965c.98510142 9.88521367.90769457 19.74938618.90259671 29.67162907.00258725 2.02280575.0056014 4.04561098.00900341 6.06841552.0080308 5.53631206.00985737 11.07261113.01059746 16.60892833.00185737 5.97974284.00940801 11.95947906.01613522 17.93921804.01426114 13.74472313.0201057 27.48944526.02469194 41.23417409.00234047 6.79951936.00594357 13.59903788.00969538 20.39855659.01283006 23.2989415.02355058 46.59788254.0270026 69.8968275.00022163 1.46075511.00044341 2.92151022.00066535 4.38226532.00022064 1.46416565.00044112 2.9283313.00066145 4.39249695.00044254 2.9370883.00088966 5.87417659.00133967 8.81126488l.00033149 2.20672565c.00363001 23.60838996.01955073 47.21674921.04285888 70.82512742.02462789 24.99102873.03831733 49.98203991.03951108 74.97308112.00017144 2.74627881.00038686 5.49255761.00063443 8.23883641l.000169 2.04895535c.00114772 10.85253137.01214565 21.70503103.02671806 32.55755172.01440713 10.91864098.01732689 21.83723967.00956002 32.75588745-.0038969 5.90803045-.00302375 11.81595485.01105735 17.72397213.012796 5.41856314.01149163 10.83694114-.00059072 16.25550424-.00194713 1.95015232.00107538 3.90031803.00984437 5.85045161C858.44979721 784.63739075 857.1075147 800.48550863 851 816l-.86328125 2.30859375c-9.72904094 24.04401748-31.90676014 41.97766134-55.08984375 52.15234375C785.53706988 874.30924493 775.1369654 875.83430612 765 877l-1 3-2.9375-.5c-3.12945584-.51093157-4.0679853-.49963091-7.24718487-.28571427-10.60724981.70447764-21.15621628.92827172-31.78427875.91269791-1.74495035.00115533-3.48990045.00274559-5.23485005.00472725-4.74446693.00413627-9.48891348.00212876-14.23338044-.00098622-5.13545893-.0022771-10.27091453.00123678-15.40637278.00397992-10.0364872.00443075-20.0729669.00349364-30.10945438.00058736-8.15317368-.00226289-16.30634526-.00256273-24.45951917-.00147618l-3.5226734.00046434a1875941.58570663 1875941.58570663 0 0 0-7.08521018.00097259c-22.10511214.00284643-44.21022012-.00042002-66.31533158-.00580037-18.97613693-.00447555-37.95226774-.00368431-56.92840456.00091876-22.05037732.00534631-44.10075101.00746212-66.15112888.00438774a1967513.49062183 1967513.49062183 0 0 0-7.04559124-.00094306 801068116.3439977 801068116.3439977 0 0 0-3.50148299-.00046751c-8.15259035-.00086437-16.30517841.00059583-24.45776841.00294706-9.92080323.00279844-19.84159854.00205844-29.76240085-.00328075-5.06366054-.00263512-10.12730785-.00364511-15.19096829-.00035084-4.62924605.00296628-9.25846653.00136458-13.88771023-.00397756-1.67988381-.00112264-3.35976975-.00053634-5.0396522.00187579-2.27275924.00301473-4.54542943-.00005173-6.81818391-.00472082l-3.83486641-.00049198C320 880 320 880 317 879c-1.98487049.09227637-1.98487049.09227637-4.11523437.42919922-4.70253964.59131813-9.30589464.71587632-14.04101563.70361328l-2.51013184.00289917c-1.7309985.00067473-3.46199965-.0011297-5.19299316-.00534058-2.66151478-.00541358-5.322865-.00000323-7.984375.00634766-1.68750037-.00065984-3.37500064-.00193903-5.0625-.00390625l-2.41760254.00613403C270.1149879 880.1149879 270.1149879 880.1149879 269 879c-2.33944736.28730055-4.6739143.61936779-7 1v-2l-6 2v-3l-3.46484375-.3671875c-1.49094042-.16878571-2.98182298-.33808297-4.47265625-.5078125l-2.28710937-.23828125C243.84080701 875.66116192 241.91823981 875.33741026 240 875l-1-2-3.6875-.75C221.02144976 869.31908509 206.63134861 860.94884228 196 851v-2l-4 1-1.0625-3c-1.70901256-4.03130714-4.26027891-6.91992203-7.21875-10.10546875C182 835 182 835 180.46875 832.88671875 178.96243732 830.74686604 178.96243732 830.74686604 176 829l1-3c-1.17455972-2.65963316-1.17455972-2.65963316-2.875-5.4375-1.90140336-3.25007319-3.2717737-5.92295808-4.125-9.5625l-.95123291-3.22372437c-3.96050299-14.42574573-3.66018799-29.04194217-3.65624666-43.87607121-.00328641-4.01261387-.02947419-8.02509868-.05227995-12.03764033-.0417212-8.00305323-.06155946-16.0060253-.07420027-24.00917155-.01100189-6.62987079-.0308972-13.25966494-.05650652-19.88949483l-.01115858-2.90183622-.01125849-2.92613715c-.10188916-26.4887614-.14461744-52.97754398-.17742729-79.46646786-.00820046-6.59252642-.01730361-13.18505134-.02665043-19.77757621-.05688715-40.1262976-.090682-80.25258202-.1054452-120.37891675-.00191559-5.09431012-.00432854-10.18861985-.00697297-15.28292965-.01877375-36.63410192-.00397523-73.26784452.11050415-109.90182495.01256893-4.0603567.02320358-8.1207082.03140259-12.18107605.01991813-9.70325659.05911397-19.40574425.14961624-29.10861778.02378601-2.61395553.03538543-5.22701682.04024505-7.84117508C165.25459642 286.6958903 168.08211224 267.75706013 179 249l1.71875-3.04296875c12.56324944-21.00788644 33.7446855-36.01599451 57.08984375-42.76953125C241.29184891 202.36387317 244.41139252 202 248 202v-2h52c-.11815232-10.78429141-.11815232-10.78429141-.27026367-21.56811523C299.61871514 166.76806011 300.78050844 157.77361459 309 149c7.86553018-7.08054713 15.35640712-8.75937888 25.87890625-8.43359375 7.21967386.53633773 13.1742216 3.52881977 18.30859375 8.58984375 6.03572304 7.34346303 8.24401196 13.94134337 8.5 23.28125l.10351563 2.38867187C362.10181192 182.88784731 362 190.92500295 362 199l118 1c1.57109433-3.14218866 1.10188239-6.49305516 1.0625-9.9375l-.01367187-2.20898437C481.03630897 185.90231603 481.01842642 183.95115275 481 182c0-12.72836661 1.63679313-24.63679313 11-34 7.23524603-6.84415165 14.68934215-7.54520439 24.29296875-7.36328125C521.39661289 141.13686512 525.48625306 142.64425398 530 145l2.046875.84765625c2.56403121 1.51277841 3.8128803 3.28071878 5.515625 5.71484375l1.75390625 2.44140625C547.75525061 169.02152487 544 181.27539017 544 200h116v-31c2.83955156-11.35820622 5.60842532-18.80526999 15.32421875-25.07421875 12.83773167-7.09217344 27.60585501-3.93126627 38.2734375 5.484375ZM722 237c-1.24050968 1.96931804-1.24050968 1.96931804-.55932617 4.2019043 1.02432704 5.12431784.50077443 10.35298232.31738281 15.55322265-.06997586 2.04043791-.12453557 4.08089665-.17797851 6.12182618C721.2193984 273.77809411 720.3935053 282.50767225 713 291c-7.56565508 6.34757108-14.80508331 8.48428796-24.609375 8.31640625-6.72834969-.62787595-13.99122294-2.8634741-19.046875-7.56640625-6.34044147-8.25731912-8.43050168-16.72890868-8.66015625-26.89453125l-.06297302-2.33268738c-.06508122-2.44500804-.12418664-4.8901182-.18312073-7.33528137-.04322468-1.66342177-.08684021-3.32683344-.13085937-4.99023437C660.19990093 246.13161352 660.09851829 242.06585929 660 238h-88v1l-28 1-.078125 7.77734375c-.03851864 2.51223262-.08364691 5.02426677-.12939453 7.53637695-.02805784 1.73297496-.04934722 3.46607427-.06347656 5.19921875-.102934 11.91632522-.46580103 21.68112371-8.88525391 30.91674805-7.22706734 6.15525651-15.38345822 7.94164319-24.60546875 7.8515625C502.22578942 298.58535204 495.7097337 295.5704719 490 290l-2.3125-2.0625c-1.85465144-2.12941462-2.10707818-3.22968857-2.6875-5.9375l-.51538086-2.03857422c-1.28926969-5.39193856-1.8529799-10.55461299-2.04711914-16.08642578-.07345232-1.65628417-.14768218-3.31253402-.22265625-4.96875l-.10595703-2.48046875c-.16545863-3.68609181-.37743517-7.36831045-.60888672-11.05078125l-.21875-3.6640625c.0156291-2.62417962.0156291-2.62417962-1.28125-3.7109375-1.86651421-.09386165-3.7366001-.11743809-5.60546875-.11352539l-3.63012695.00022888-3.9519043.01564026c-1.34138944.00186446-2.68277956.00328823-4.02416992.00428772-3.53749458.00382491-7.07494835.01365371-10.61242676.02470398-3.60289967.01020737-7.20580587.01479414-10.80871582.01983642-6.32529088.00958882-12.65055667.02411173-18.97583008.042099C401.92793845 238.05085362 381.46351141 238 361 238l.04760742 3.05419922c.05480417 3.78328275.08892381 7.56653132.1171875 11.35009765.01497274 1.62929204.03535829 3.25854458.06152344 4.88769532C361.41870133 269.58941317 361.20229777 281.01459402 353 291c-6.08057039 5.83734757-13.58579809 8.11579747-21.875 8.4375-8.48838533-.24870428-16.37480719-2.75552699-22.625-8.66015625-6.01298303-7.12475853-7.61793134-13.93644486-7.81640625-23.04296875l-.06297302-2.40423584c-.06522046-2.5266276-.12425217-5.05335637-.18312073-7.58013916-.0432114-1.71615616-.08682653-3.43230222-.13085937-5.1484375C300.19974717 248.40114454 300.09840271 244.20062511 300 240l-2-1v-1h-2.00366211C275 238 275 238 272.96557617 237.95239258c-18.8875764-.40891163-35.35868849.33146543-50.27807617 13.42260742-1.58093488 1.52275647-3.14480046 3.06351977-4.6875 4.625l-1.96484375 1.8984375c-13.58512834 14.09048322-14.48357279 32.99115792-14.41610718 51.36314392-.00346021 2.05524477-.00822721 4.11048767-.01418173 6.16572672-.01248974 5.62582446-.00634876 11.25149568.00295865 16.87732059.00679847 6.07576954-.00369473 12.15151306-.01193976 18.2272774-.01256137 11.20723564-.01148368 22.4144224-.00326559 33.62165701.00755568 10.35513934.00951257 20.71026086.00593206 31.06540239l-.00069441 2.08390666c-.00093406 2.79177787-.00188927 5.58355573-.00287929 8.37533358-.00917113 26.17398746-.00086611 52.34794397.01529069 78.52192666.01423458 23.23660981.01296359 46.4731703-.00138297 69.70977968-.01607642 26.12553096-.02242677 52.25103458-.01316321 78.37656981.0009621 2.78691225.00190063 5.57382452.00282919 8.36073678l.00071889 2.07931648c.0034074 10.34607006-.00056909 20.69212032-.00815755 31.03818764-.00858913 11.76884145-.00612128 23.53763583.00984224 35.30647367.00787418 6.00259232.01098876 12.00508465.00105254 18.00767619-.00896499 5.49911143-.00398418 10.99803054.01193266 16.49712462.00334016 1.9850527.00167104 3.97012179-.00562737 5.95516388C201.5723293 780.13513886 201.90711159 789.76683478 205 800h3l-2 1c1.4517379 5.66177782 4.31558305 10.49459884 8 15h2l.23828125 1.73046875C218.64692726 824.90699864 227.62331682 829.59969133 233.9375 832.875c10.60280344 4.98412523 20.96242142 7.28257341 32.66127682 7.25642776l2.59620061.00622011c2.87845763.00566635 5.75686735.00421319 8.63532958.00279402 2.08163748.00258386 4.16327447.00559707 6.24491077.00900341 5.72668352.00807105 11.45335451.00985963 17.18004305.01059746 6.17406666.0018504 12.34812682.00939774 18.52218973.01613522 14.20862561.01429371 28.41724709.02011031 42.62587817.02469194 7.02433602.00233699 14.04867122.00593978 21.0730066.00969538 24.05396339.01283567 48.10792634.02355419 72.16189309.0270026 1.50972438.00022163 3.01944876.00044342 4.52917314.00066535 1.51333655.00022064 3.02667311.00044112 4.54000967.00066145 3.03592477.00044255 6.07184954.00088967 9.10777432.00133967l2.28100515.00033149c24.39698429.00362911 48.79393884.01954354 73.19091174.04285888 25.80497392.02461573 51.60993084.03831684 77.41491683.03951108 2.83478593.00017145 5.66957184.00038687 8.50435776.00063443l2.11510241.000169c11.21608804.00114901 22.43214548.01215841 33.64822319.02671806 11.28226619.01439186 22.56449387.01733509 33.84677025.00956002 6.1081171-.00390282 12.21613161-.00299477 18.32423604.01105735 5.59813472.01276083 11.19608997.01152211 16.79422451-.00059072 2.01891842-.00195321 4.03784966.00110397 6.05675011.00984437 22.43042768.09091373 43.64963094-3.26015918 60.35987896-19.69282833 11.75731433-13.80009095 15.82558055-29.59200941 15.77707195-47.34865952l.00531224-2.50618016c.0046359-2.75932097.00220074-5.51858868-.00023392-8.27791178.00186918-2.00315591.00417032-4.00631145.00686532-6.00946641.00611108-5.49573691.00598522-10.99145859.00480563-16.48719812-.00020418-5.9306186.00531639-11.86123233.01005756-17.79184866.00830325-11.61575804.01106766-23.2315114.01161238-34.84727213.0004599-9.4423717.00252012-18.88474177.00570063-28.32711294.00089757-2.71998286.00178738-5.43996572.00267488-8.15994859l.00066984-2.04919569c.00615244-19.01597463.01010074-38.03194869.00965672-57.04792435l-.00004721-2.17166092c-.0000831-3.632102-.00018214-7.26420399-.00028471-10.89630599l-.00006044-2.18582441a2338210.66007626 2338210.66007626 0 0 0-.00012539-4.37606505c-.00061268-22.69233827.00689333-45.3846616.02057257-68.07699559.01536965-25.50693365.02396569-51.01385749.02303677-76.52079606-.00007462-2.72124029-.00012333-5.44248057-.00015431-8.16372085l-.00003532-2.03035191c-.00002883-10.10281809.00528268-20.2056244.01336769-30.30843898.00910575-11.49442125.0112796-22.988818.00449057-34.48324129-.00326476-5.86281165-.0033234-11.72557629.00535325-17.58838347.00786771-5.37151083.00643073-10.74293741-.00228413-16.11444619-.00153438-1.9387116.0002788-3.8774295.00586008-5.81613368.1471588-18.54693925.1471588-18.54693925-4.38044515-36.41491726l-1.0703125-2.73828125L816 272h-3l.65234375-1.734375c.58400234-3.80585795-1.64805554-5.8961059-3.7890625-8.8984375C801.93980939 251.30088992 792.17598588 244.03836865 780 240l-3.625-1.25c-6.56465938-1.54942271-13.67933092-.89195765-20.375-.75-2.77161798 0-5.54597365-.13419289-8.31640625-.21875l-2.21531677-.06726074c-2.34359665-.07118821-4.68718685-.14258655-7.03077698-.21398926-1.58528604-.04819088-3.17057249-.09636815-4.75585937-.14453125C729.78775559 237.23713744 725.89387633 237.11861764 722 237Zm-178 1v1h27v-1h-27Zm270 31 1 2ZM280 877v1h18v-1h-18Zm22 0 4 1Zm6 0v1h5v-1h-5Zm33 0v1h6v-1h-6Zm7 0v1h6v-1h-6Zm8 0v1h5v-1h-5Zm7 0 4 1Zm9 0v1h7v-1h-7Zm17 0 4 1Zm15 0 4 1Zm31 0v1h7v-1h-7Zm8 0v1h5v-1h-5Zm15 0v1h6v-1h-6Zm43 0 4 1Zm7 0v1h5v-1h-5Zm7 0 4 1Zm9 0v1h6v-1h-6Zm25 0 4 1Zm32 0 4 1Zm23 0v1h5v-1h-5Zm8 0v1h15v-1h-15Zm25 0v1h26v-1h-26Zm29 0v1h5v-1h-5Zm10 0 4 1Zm8 0v1h6v-1h-6Zm15 0 4 1Zm8 0 4 1Zm9 0 4 1Zm9 0 1 2 1-2h-2Zm7 0v1h13v-1h-13Z"/><path fill="#292929" d="M686 407c1.32905754.34999278 2.66133851.68875365 4 1v2l1.73046875.8203125c10.40723587 5.40961314 15.95678072 13.88283382 20.20703125 24.6171875 3.29239931 11.42051011.94124983 23.18507884-4.4921875 33.51953125-5.23659711 8.39428764-12.06953009 15.32219553-18.89941406 22.42041016-2.42424877 2.54446577-4.73049412 5.18262811-7.01855469 7.84912109-1.13778899 1.3211156-2.29457486 2.62591651-3.4609375 3.921875L676.125 505.3125l-1.7421875 1.92578125C672.79261994 509.06047321 672.79261994 509.06047321 672 512c-1.6015625 1.54296875-1.6015625 1.54296875-3.625 3.1875-3.48308596 2.95908188-6.46189448 6.05533829-9.4140625 9.53515625-2.3195639 2.69383617-4.73172887 5.29620594-7.1484375 7.90234375-3.94334869 4.26644102-7.7524264 8.62362029-11.5 13.0625-5.30715288 6.27760872-10.91354944 12.23571934-16.58276367 18.18603516-4.51150269 4.76035684-8.7039882 9.63944914-12.78442383 14.77490234-2.50723823 3.03083818-5.25321117 5.74430378-8.0703125 8.484375-1.75745583 1.7501331-3.38511416 3.5483455-5 5.4296875-3.51227227 4.08686059-7.18817128 8.00895141-10.875 11.9375-4.13634681 4.4107073-8.22635495 8.83869514-12.171875 13.421875-3.03107966 3.44558628-6.16638952 6.7950059-9.28564453 10.16064453C562.50214317 631.36555291 559.48564451 634.66693503 556.5 638c-4.4373979 4.95002148-8.94679088 9.83108787-13.4609375 14.7109375C540.18333542 655.79874907 537.33976056 658.89750771 534.5 662c-4.32343168 4.72227799-8.66168285 9.43063032-13.00854492 14.13134766-2.4914786 2.69583082-4.97672442 5.39690929-7.44848633 8.11083984-4.4261455 4.85752618-8.86877945 9.6625434-13.578125 14.25-1.69084317 1.68312318-1.69084317 1.68312318-3.77734375 4.5078125-6.17927982 7.57721525-16.20840014 12.91579585-25.6875 15-16.12581261 1.32326698-26.97040283-1.77869004-40.125-11.25L429 705v-2l-1.74035168-.75706577c-2.58320453-1.42090842-4.32428613-3.05001279-6.41402149-5.12988186l-2.48475647-2.45890808-2.69998169-2.70272827c-.95433952-.94835278-1.90908739-1.89629477-2.86421203-2.84385682-2.59182697-2.57416383-5.17713557-5.15477974-7.76078248-7.7371509-1.61777274-1.61634952-3.23696205-3.23126572-4.85667015-4.84567571-5.66060293-5.64209395-11.31600855-11.28933807-16.96657753-16.94148064-5.24969573-5.25089385-10.51040476-10.49056776-15.77649861-15.72501129-4.53219544-4.50593377-9.05653355-9.01965786-13.57498014-13.53937828-2.69342995-2.69393716-5.38979547-5.38475553-8.09411794-8.06776184-2.54937848-2.52983175-5.08873085-5.06933491-7.62112808-7.61616135-1.36007443-1.36312091-2.72993403-2.71645731-4.10020638-4.0693264C323.63947132 600.05399133 315.71430348 588.22982857 315.5 573.0625c.17942476-12.71074878 4.68681701-22.9489362 13.44921875-32.09765625 9.66107596-8.93981685 20.18804641-11.53742188 33.1640625-11.34375C371.43193569 530.52954549 380.93952676 534.77875614 388 541v2l1.79516602.80737305c2.25003923 1.21707913 3.6981501 2.45562323 5.48217773 4.2746582l1.80664063 1.82617187L398.9375 551.8125l1.84179688 1.86914062c1.19181918 1.20981862 2.38204922 2.42120514 3.57055664 3.63427735C410.55904538 563.93736693 410.55904538 563.93736693 418 569c3 3.57692308 3 3.57692308 3 6l1.80247498.81567383c2.20018877 1.18576176 3.611828 2.36216402 5.35792541 4.13354492l1.78981018 1.80004883 1.89744568 1.93823242 1.97911072 1.99487305C435.91015482 587.78355193 437.98673032 589.89129686 440.0625 592c2.08019293 2.10782631 4.16182992 4.21417346 6.2464447 6.31762695 1.29604607 1.30828472 2.58940949 2.61923363 3.87979126 3.93310547l1.78025818 1.80004883 1.5582428 1.58325195C455.16203524 607.22293844 455.16203524 607.22293844 458 609v2c3.40079936-.57557675 4.93378709-1.6001312 7.2421875-4.1328125l1.79296875-1.9453125L468.875 602.875l1.81640625-1.9765625c3.46742395-3.79084961 6.81460361-7.65404389 10.05126953-11.64404297C482 588 482 588 484 588l.76953125-1.765625c1.36367208-2.47625533 2.87272078-4.03958126 4.91796875-5.984375 2.59171381-2.52703646 5.08336051-5.06300884 7.4375-7.8125 3.51227227-4.08686059 7.18817128-8.00895141 10.875-11.9375 4.12682797-4.40055708 8.20873351-8.81741014 12.14453125-13.390625 2.67391429-3.03981835 5.42094451-6.01065852 8.16796875-8.984375l1.60205078-1.73486328C531.91490301 534.22949779 533.9177603 532.0822397 536 530l-1-2 2.0703125-1.05078125c3.85742477-2.56647328 6.70242852-5.72034927 9.8046875-9.13671875l1.8894043-2.0534668c3.58707967-3.91023154 7.13609711-7.8513031 10.59887695-11.87231445C561.37873772 501.56341213 563.43848462 499.28251535 565.5 497c2.63180445-2.91488929 5.24286926-5.84273211 7.8125-8.8125 3.6705673-4.21815776 7.47864687-8.3052707 11.2800293-12.4050293 3.27274025-3.5356687 6.48200444-7.11498044 9.6340332-10.7590332C596.45138092 462.48498829 598.72503319 459.99358224 601 457.5c2.884201-3.16261557 5.75177475-6.33440488 8.5625-9.5625 6.26864083-7.19948309 12.69944874-14.24833428 19.1875-21.25l1.64501953-1.77783203c8.54601272-9.1971375 8.54601272-9.1971375 12.91748047-12.59716797L646 410v-2l5.56640625-1.3671875c1.93406798-.50291976 3.84865286-1.08063709 5.75390625-1.68359375C667.04640692 402.44025809 676.69351687 403.57875953 686 407Z"/><path fill="#2E2F2E" d="m853 274 1 3h2c1.7380453 12.9877219 2.28278598 25.7110842 2.24050903 38.80484009.00087419 2.04081252.00262908 4.08162481.00517834 6.12243593.00443564 5.55753377-.00347758 11.1149893-.01355613 16.67251312-.00868724 6.01200959-.00571063 12.02401524-.00419545 18.03602934.00104553 10.39951619-.00512585 20.79901161-.01647568 31.19852066-.01186348 10.89827342-.01953781 21.79653676-.02170562 32.69481659l-.00041661 2.05896653c-.00067673 3.45110079-.00127947 6.90220159-.00185375 10.35330239-.00419273 24.39811268-.01764479 48.79621224-.03660522 73.19431754-.01839015 23.69173106-.03254693 47.38345853-.04101563 71.07519531l-.00079713 2.21579994c-.0026372 7.34363618-.0051888 14.68727239-.00767772 22.03090862-.00507144 14.95775221-.01071394 29.91550418-.01670215 44.87325604l-.00083206 2.08370861C858.0654754 694.27641269 858.03374586 740.13820703 858 786l-2-2-2 13h-1l.0075627-3.26273894c.10994051-47.46020419.21860728-94.92041107.32079118-142.38063264l.00469029-2.17793697c.03363151-15.62034871.06703493-31.24069791.10020343-46.86104761.01626762-7.66040611.03258563-15.32081211.04893013-22.98121806l.00492607-2.30998639c.05269776-24.70055401.10872213-49.40109911.16647477-74.10164178.05933924-25.38664771.11531607-50.77330067.16707252-76.15996503.00731468-3.58710012.01466773-7.17420017.02204415-10.76130017l.00439567-2.13933582c.02343269-11.35647901.0504015-22.71294699.07869847-34.06941481.02838417-11.42183661.05294642-22.8436754.07388179-34.26552857.01145109-6.18666048.02456738-12.37330566.04215889-18.55995199.01607613-5.66662065.02740639-11.33323047.03500103-16.99986866.00357467-2.04731019.00887404-4.09461827.01609727-6.14191884C854.12725916 293.8374436 854.13421095 283.94275847 853 274Z"/><path fill="#413F3F" d="M256 876h509l-1 4-2.9375-.5c-3.12945584-.51093157-4.0679853-.49963091-7.24718487-.28571427-10.60724981.70447764-21.15621628.92827172-31.78427875.91269791-1.74495035.00115533-3.48990045.00274559-5.23485005.00472725-4.74446693.00413627-9.48891348.00212876-14.23338044-.00098622-5.13545893-.0022771-10.27091453.00123678-15.40637278.00397992-10.0364872.00443075-20.0729669.00349364-30.10945438.00058736-8.15317368-.00226289-16.30634526-.00256273-24.45951917-.00147618l-3.5226734.00046434a1875941.58570998 1875941.58570998 0 0 0-7.08521018.00097259c-22.10511214.00284643-44.21022012-.00042002-66.31533158-.00580037-18.97613693-.00447555-37.95226774-.00368431-56.92840456.00091876-22.05037732.00534631-44.10075101.00746212-66.15112888.00438774a1967513.49062537 1967513.49062537 0 0 0-7.04559124-.00094306l-3.50148299-.00046751c-8.15259035-.00086437-16.30517841.00059583-24.45776841.00294706-9.92080323.00279844-19.84159854.00205844-29.76240085-.00328075-5.06366054-.00263512-10.12730785-.00364511-15.19096829-.00035084-4.62924605.00296628-9.25846653.00136458-13.88771023-.00397756-1.67988381-.00112264-3.35976975-.00053634-5.0396522.00187579-2.27275924.00301473-4.54542943-.00005173-6.81818391-.00472082l-3.83486641-.00049198C320 880 320 880 317 879c-1.98487049.09227637-1.98487049.09227637-4.11523438.42919922-4.70253963.59131813-9.30589463.71587632-14.04101562.70361328l-2.51013184.00289917c-1.7309985.00067473-3.46199965-.0011297-5.19299316-.00534058-2.66151478-.00541358-5.322865-.00000323-7.984375.00634766-1.68750037-.00065984-3.37500064-.00193903-5.0625-.00390625l-2.41760254.00613403C270.1149879 880.1149879 270.1149879 880.1149879 269 879c-2.33944736.28730055-4.6739143.61936779-7 1v-2l-6 2v-4Zm24 1v1h18v-1h-18Zm22 0 4 1Zm6 0v1h5v-1h-5Zm33 0v1h6v-1h-6Zm7 0v1h6v-1h-6Zm8 0v1h5v-1h-5Zm7 0 4 1Zm9 0v1h7v-1h-7Zm17 0 4 1Zm15 0 4 1Zm31 0v1h7v-1h-7Zm8 0v1h5v-1h-5Zm15 0v1h6v-1h-6Zm43 0 4 1Zm7 0v1h5v-1h-5Zm7 0 4 1Zm9 0v1h6v-1h-6Zm25 0 4 1Zm32 0 4 1Zm23 0v1h5v-1h-5Zm8 0v1h15v-1h-15Zm25 0v1h26v-1h-26Zm29 0v1h5v-1h-5Zm10 0 4 1Zm8 0v1h6v-1h-6Zm15 0 4 1Zm8 0 4 1Zm9 0 4 1Zm9 0 1 2 1-2h-2Zm7 0v1h13v-1h-13Z"/><path fill="#080807" d="M168 281h1l-1 511h-1c-.79400031-3.50793797-1.133037-6.76075095-1.15821838-10.35456848l-.029665-3.24834728-.01743889-3.56432057-.02998161-3.8180666c-.02734172-3.52826983-.04829983-7.05655291-.06799388-10.58487272-.01784206-3.0786273-.03899417-6.15722887-.06002432-9.23583579-.07083709-10.41289111-.1282824-20.82584174-.18412226-31.23882222-.02004611-3.68505661-.04116884-7.37010673-.0622809-11.05515736-.41774785-73.13057217-.4992344-146.26154181-.51238817-219.3931104-.00160873-8.74976876-.00456298-17.49953566-.00871157-26.24930358-.05242234-110.80461626-.05242234-110.80461626.4864487-150.22188586.02675194-2.02221923.05031507-4.04445311.0730834-6.06672072.04309263-3.55609721.09937981-7.11166813.16162491-10.66747475l.03381729-3.02260017C165.72144478 288.77082031 165.85483991 285.08637914 168 281Z"/><path fill="#222221" d="M544.98151493 234.87695217c1.3149377.0013827 1.3149377.0013827 2.65643978.00279331l3.0383606-.00416565 3.3610382.01089478c1.16082093-.00014603 2.32164185-.00029206 3.51763917-.0004425 3.85798984.00069972 7.7159321.00849491 11.57391357.01631164 2.66658103.00186397 5.3331594.00333713 7.9997406.00428772 6.31464194.00311305 12.62926666.0113261 18.943901.0213495 7.18730848.01116193 14.37461776.01667178 21.56193274.02169542C632.4229971 234.9601402 647.2114951 234.97848535 662 235l1 39-2 1c-1.49180064-2.98360127-1.21819376-6.06800657-1.28125-9.34375l-.05578613-2.19665527c-.07874085-3.10633476-.14643222-6.21288929-.21520996-9.319458-.05171672-2.26557153-.10897118-4.53095668-.1665039-6.79638673l-.0411377-2.13708496C659.19385402 241.4783447 659.19385402 241.4783447 658 238l-1 2h-30v-2l-16 1v1h-31v-1h-5v1h-31v37h-2c-.02464639-5.82071623-.0428343-11.64140234-.05493165-17.4621582-.00504103-1.98177622-.01187374-3.96354869-.0205078-5.9453125-.0120757-2.84205039-.017791-5.68405177-.0222168-8.52612305-.0051613-.89166367-.01032258-1.78332733-.01564027-2.7020111C541.88650823 240.24259398 541.9378997 238.1208922 542 236c1-1 1-1 2.98151493-1.12304783ZM544 238v1h27v-1h-27Z"/><path fill="#2C2B2A" d="M449.60180664 234.8864746c1.60279191.0002511 3.20558923.0058128 4.80834961.01586915l2.26062012.00305176c2.79725676.0052476 5.59449167.01920876 8.39172363.03210449L484 235v39l-2-1-.18359375-3.62890625c-.08457605-1.6445343-.16921494-3.28906538-.25390625-4.93359375-.0393164-.78052734-.0786328-1.5610547-.11914063-2.36523437C481.044617 254.3734706 480.51301827 246.69527393 480 239h-53v1h-15v-1l-51-1v-1l3.18223572-.03123474c9.87428138-.09756067 19.7484973-.20027783 29.62267208-.30810452 5.07697104-.05527348 10.1539478-.10870041 15.23098087-.1579752 4.89536796-.04757845 9.79066354-.09991862 14.68594551-.1556263 1.87197453-.02045318 3.74396892-.03916125 5.61597824-.05613326 2.61264834-.02397866 5.22515855-.05404171 7.8377247-.08560371l2.3692932-.0174408c3.83414663-.05299872 6.40074748-1.18616614 10.05697632-1.30140686Z"/><path fill="#161616" d="M319 585c2.04651951 2.60785057 3.64933332 5.16273578 5.125 8.125 6.97729296 12.57870436 19.50575316 22.63585866 29.59765625 32.6953125 1.71371525 1.71184708 3.42720756 3.42391737 5.14048767 5.13619995 4.48082072 4.47702692 8.9646378 8.95104094 13.44911194 13.42440796 4.58720163 4.57691962 9.17152667 9.15671856 13.75610352 13.73626709C395.04277936 667.08092557 404.02027383 676.04157774 413 685l-3 1c-10.71327446-10.61951465-21.41485107-21.25071759-32.10288334-31.89563465-4.96376762-4.94320954-9.93118701-9.88263871-14.90761471-14.81310558-4.80732133-4.7629437-9.60390648-9.53649023-14.39425468-14.31650353-1.82441396-1.81705379-3.65233052-3.63059812-5.48387528-5.44046402-2.57536434-2.54610151-5.1377076-5.10468161-7.69755363-7.6663723l-2.27558899-2.23200989C326.43014242 602.87572477 319.22098915 594.94451173 319 585Z"/><path fill="#1F1E1E" d="M720 235c6.68941989-.0509083 13.37878939-.08582084 20.06835938-.10986328 2.27345649-.01002805 4.54690018-.02365383 6.8203125-.04101563 3.27672494-.02438893 6.55327863-.03563643 9.83007812-.04443359l3.05651855-.03128052C765.54271133 234.77249981 770.46947845 235.34199095 776 237v1l-16 1v1h-12v-1l-2.24731445-.07592773c-3.35523883-.11593359-6.71019499-.23867212-10.06518555-.36157227l-3.53710938-.11914062-3.38867187-.12695313-3.1262207-.11108398C723 238 723 238 720 237v-2Z"/><path fill="#40403F" d="M482 172h1v29H361v-1h119c1.57109433-3.14218866 1.10188239-6.49305516 1.0625-9.9375l-.01367188-2.20898438C481.03630897 185.90231603 481.01842642 183.95115275 481 182c0-3.41099168.49145406-6.63088314 1-10Z"/><path fill="#1B1B1A" d="M541 278h1c0 6.25181647-2.3600734 9.43153696-6.60546875 13.9140625-7.4429118 6.48371109-15.52829091 8.46899685-25.16015625 8.36328125-7.64775746-.65578597-14.38722057-3.48917146-19.99609375-8.75C488.55630556 289.4527302 488.07792075 287.64930544 488 285l2.125 2.25c8.89617614 8.50938587 17.11281837 10.12249293 29.12890625 9.85546875L522 297v-2l3.0625-.625c6.64639133-1.94692271 10.56655451-6.33207637 13.875-12.25.70190644-1.36770194 1.39476411-2.74029424 2.0625-4.125Z"/><path fill="#181818" d="M843 826c.76953125 1.6171875.76953125 1.6171875 1 4-1.35247551 2.24298186-2.67025089 4.11303764-4.3125 6.125l-1.38964844 1.73950195C827.01111606 851.76047422 812.85911325 863.49750677 796 870c-2.90234375.1796875-2.90234375.1796875-5 0 1.43647021-2.87294042 3.19933627-2.96118206 6.1875-4.0625C815.85153184 858.34347518 832.99646454 843.57809746 843 826Z"/><path fill="#161615" d="M206.28515625 220.2734375 208 221l-1.57421875 1.1015625C201.86973429 225.38595864 198.46574675 228.59756494 195 233l-2.36328125 2.29296875C185.77585563 242.33678822 180.48119118 251.28532167 176 260c-.703125-1.59765625-.703125-1.59765625-1-4 3.71631143-8.79756439 20.46366478-37.02144182 31.28515625-35.7265625Z"/><path fill="#1E1E1F" d="M720 239h2c1.44703263 5.95382666.97057733 11.83966897.75805664 17.91992188-.07032995 2.07339523-.12465684 4.14680925-.17797852 6.22070312l-.13085937 3.984375-.11450195 3.6328125C722.01199392 273.88382252 721.3280905 276.17101043 720 279h-1c-.02464775-5.53588533-.04283496-11.071739-.05493164-16.60766602-.0050408-1.88477128-.01187334-3.76953863-.02050781-5.65429687-.01207672-2.70305347-.01779123-5.40605542-.0222168-8.10913086l-.01564026-2.56944275c-.00019544-2.02017418.0512344-4.04024284.11329651-6.0594635l1-1Z"/><path fill="#454444" d="M256 237h45v39h-1l-1-35c-7.99408223-.67773014-7.99408223-.67773014-16-1h-8v-2l-3.3125.5625c-5.29445693.68438222-10.41231308.06780726-15.6875-.5625v-1Z"/><path fill="#171717" d="M505 143c-1.67574483 1.11716322-3.36266405 2.21936421-5.0859375 3.26171875-7.11715695 4.43304145-11.19688461 8.55718135-13.47627258 16.73381042-.749645 3.43233469-.79639288 6.84207099-.85185242 10.34431458l-.0586853 2.32411194c-.05927778 2.42440537-.10597131 4.84885959-.1522522 7.27354431-.03822762 1.65431638-.07728206 3.30861387-.1171875 4.96289062C485.16231637 191.93343844 485.07809693 195.96657927 485 200h-1l-.07592773-2.04443359c-.11733537-3.11031834-.23942754-6.22043337-.36157227-9.33056641l-.11914062-3.21484375c-.1984322-4.97606887-.47428195-9.86823562-1.11132813-14.80859375C481.54007376 163.18358558 484.92741807 156.26669569 489.5 150.5c4.97857968-4.97857968 8.31431769-7.69420763 15.5-7.5Z"/><path fill="#1B1B1B" d="m186 837 2.16015625 2.171875C199.91509069 850.90617951 211.8086096 860.03436246 227 867v1c-5.76636861-.45953066-9.52031942-2.04963389-14.375-5.125l-1.96899414-1.21704102C200.17468424 855.08417618 200.17468424 855.08417618 196 851v-2l-4 1-1.3125-3.3125c-1.20215852-2.84510851-2.44520892-4.55198469-4.6875-6.6875v-3Z"/><path fill="#181818" d="M392 548c4.19180275.50340356 6.09110114 2.78518393 8.9375 5.75l2.52734375 2.609375L406 559c5.47002127 5.68053353 5.47002127 5.68053353 12 10 3 3.57692308 3 3.57692308 3 6l1.8125.8125c2.15974808 1.17243467 3.54540256 2.38119282 5.1875 4.1875l-1 3-1.6875-1.72265625L423 578.9375l-2.25-2.28515625c-2.11403155-2.03895941-4.24507069-3.96232479-6.46875-5.875-4.8076647-4.17225319-9.29275044-8.64191341-13.78125-13.15234375l-2.4921875-2.48046875-2.3515625-2.35546875-2.13085938-2.13427734C392 549 392 549 392 548Z"/><path fill="#1A1B1A" d="m555 508 3 1-2.08984375 2.2734375c-7.79823216 8.49041598-15.5637915 17.00635155-23.13671875 25.69921875C529.53952142 540.66957793 526.267917 544.33314248 523 548l-1-3c1.9578264-2.12546902 3.91623817-4.25039334 5.875-6.375l1.68359375-1.828125 1.62109375-1.7578125 1.49169922-1.61865234C533.75815762 532.25855182 534.87505872 531.12494128 536 530l-1-2 2.046875-1.02734375c3.99759135-2.67034872 6.97609712-5.99680721 10.203125-9.53515625l1.9296875-2.07617188C552.45930115 511.94369873 552.45930115 511.94369873 555 508Z"/><path fill="#0F0F0F" d="m668 151 2 1-1.05859375 1.86328125L667.5625 156.3125l-1.37109375 2.42578125c-2.34089049 4.4438544-2.40159857 8.52352557-2.5078125 13.4296875l-.06297302 2.40852356c-.0653416 2.53691532-.12430881 5.07393342-.18312073 7.61100769-.04319986 1.72071372-.08681463 3.44141708-.13085938 5.16210938C663.19961352 191.56630113 663.09830276 195.7830962 663 200h-2c-.09958538-5.10451702-.17180331-10.20845677-.21972656-15.3137207-.01999754-1.73317325-.04720492-3.46628005-.08203125-5.19921875-.40226375-20.54502954-.40226375-20.54502954 5.9375-27.20556641L668 151Z"/><path fill="#1C1C1B" d="M381 655c2.80969467 1.28022875 4.8539238 2.60714129 7.02441406 4.79736328l1.69781494 1.69827271 1.793396 1.82467651 1.8661499 1.87472534c1.96082846 1.9720003 3.91457811 3.95084953 5.8682251 5.92996216 1.33026799 1.34030164 2.660992 2.68015083 3.9921875 4.01953125C406.5001015 678.42446589 409.75168533 681.71055942 413 685l-3 1c-4.13638802-4.08707305-8.26625792-8.18057878-12.39013672-12.28027344-1.40478636-1.39470805-2.81135965-2.7876186-4.21972656-4.17871094-2.02015385-1.99598593-4.03386328-3.99827752-6.04638672-6.00195312l-1.92224121-1.89096069C383.90923861 660.1362251 382.4490171 658.57260348 381 657v-2Z"/><path fill="#151615" d="M535 660c-1.33999498 3.006818-2.79845291 4.99762609-5.1875 7.25-2.40691458 2.33814559-4.69222044 4.70157717-6.875 7.25-5.76292098 6.69242436-11.89220907 13.06375763-17.9375 19.5l-3-1 2.37890625-2.34375c5.06463153-5.01214411 10.06030954-10.01650592 14.6953125-15.43359375C521.77446287 672.10614731 524.53595164 669.04854179 527.3125 666l1.6015625-1.78491211C532.7698498 660 532.7698498 660 535 660Z"/><path fill="#1A1A19" d="M831 234c3 0 3 0 4.33447266 1.31347656l1.32958984 1.82714844 1.4609375 1.99609375 1.5 2.11328125 1.5234375 2.06640625c3.72347862 5.15481583 3.72347862 5.15481583 4.37646484 7.85058594L846 253l2 1c.95648068 2.02599999 1.81741018 4.09768424 2.625 6.1875l1.3515625 3.41796875C852.98408036 266.94719783 853.19973265 269.53621536 853 273c-2.57355446-2.57355446-3.02178669-4.84470713-4.125-8.3125-3.56753521-10.54541539-9.6071295-19.49376555-16.625-28.078125C831 235 831 235 831 234Z"/><path fill="#202020" d="M703 423c3.05166746 1.04758734 3.90092808 1.81440705 5.44921875 4.71484375L709.6875 430.9375l1.26171875 3.21484375C714.44895856 443.63676874 713.78244542 452.70148834 710 462l-2-1 .4375-1.6171875C711.15660561 448.46862469 710.25063655 439.49153771 706 429c-.97820277-1.34940621-1.97289892-2.68742956-3-4v-2Z"/><path fill="#191919" d="M431 586c4.02079419.53874511 5.83953107 2.49127258 8.625 5.33203125l2.640625 2.66992187L445 596.8125l2.734375 2.77539062c1.68312507 1.70926829 3.36315126 3.42159754 5.0390625 5.13793946 1.47757484 1.50916772 2.98305813 2.99153368 4.515625 4.44482422C459 611 459 611 459 613c-3.99253663-1.60399626-6.67450208-4.40177268-9.640625-7.41015625l-1.59710693-1.59849548c-1.10835532-1.11136749-2.21428818-2.22515553-3.31793213-3.34120179-1.69704451-1.71538432-3.40203922-3.42254819-5.10839844-5.1286621-1.07599553-1.08090789-2.15153277-2.16227221-3.2265625-3.24414063l-1.55279541-1.5561676C431 587.11606989 431 587.11606989 431 586Z"/><path fill="#1F1F1F" d="m668.625 403.8125 3.8515625.01953125C675.45047187 403.97380298 678.11336541 404.30875609 681 405v2l2 1-2.8125-.5c-10.33213995-1.43444197-22.30042943-1.52027361-31.1875 4.5l-2-1 1-2-2-1 5.56640625-1.3671875c1.92873298-.50153249 3.83670545-1.08280454 5.734375-1.69140625 3.92656308-.99926262 7.28006309-1.17420738 11.32421875-1.12890625Z"/><path fill="#191919" d="M359 237h1v8l2 1v22h-2v5h-1v-36Z"/><path fill="#171717" d="M801 251c8.26255982 3.61943992 12.65348558 11.65252485 16.5625 19.375l1.08691406 2.12744141C821.12789479 277.61631564 821.12789479 277.61631564 820 281c-1.89865603-2.97180943-3.35455571-5.51460083-4-9h-3c-1-3-1-3-1-6-1.39744704-2.20545377-1.39744704-2.20545377-3.25-4.4375l-1.828125-2.30859375c-1.90302949-2.30491273-1.90302949-2.30491273-4.15625-4.4140625C801 253 801 253 801 251Zm13 18 1 2Z"/><path fill="#161616" d="M707 464c.6953125 1.6953125.6953125 1.6953125 1 4-4.34975511 8.38678273-11.87370492 15.35202447-18.33984375 22.12890625C687.03844497 492.68990528 687.03844497 492.68990528 686 495l-3-1 2.0546875-2.16796875C693.13519061 483.21506927 701.09025294 474.28523286 707 464Z"/><path fill="#41403F" d="M482 172h1v29h-35v-1h32c1.57109433-3.14218866 1.10188239-6.49305516 1.0625-9.9375l-.01367188-2.20898438C481.03630897 185.90231603 481.01842642 183.95115275 481 182c0-3.41099168.49145406-6.63088314 1-10Z"/><path fill="#0F0F0F" d="M359 164c2.83429627 2.83429627 2.54742448 5.74655235 2.75 9.5625l.13061523 2.25952148C362.23029197 183.99624964 361.22172709 191.93256245 360 200h-1v-36Z"/><path fill="#151515" d="M500 695h2c-4.58973371 9.75318413-14.03611893 17.15031868-24 21-3.375.1875-3.375.1875-6 0 2.21364727-2.21364727 3.57373339-2.6341439 6.5-3.625 9.11195662-3.54207562 15.35927557-10.00613069 21.5-17.375Z"/><path fill="#171717" d="m590 470 2 1-1.72265625 1.90625C583.41251147 480.516014 576.65619271 488.20738414 570 496l-1-3c6.92015399-7.74148539 13.9438187-15.38266723 21-23ZM204 801c3.03379835 2.81709847 5.09399688 5.58805206 7.125 9.1875 1.81578399 3.54902083 1.81578399 3.54902083 4.875 5.8125l1.375 2.3125c1.52165911 2.75859267 1.52165911 2.75859267 3.8125 4.875L223 825v2c-8.30937289-3.54533243-14.22398228-13.10825362-18-21-.66015625-2.796875-.66015625-2.796875-1-5Z"/><path fill="#0F0F0F" d="M168 281h1l-1 40h-1c-.72480005-8.5422863-1.12457969-17.05210809-1.1875-25.625l-.0390625-2.58300781C165.76646167 288.4059381 165.93954141 284.99061149 168 281Z"/><path fill="#181818" d="m237 240 2 1-1.6875 1.1015625C228.7179984 247.76348078 221.12357387 253.53540398 214 261l-2-1c6.98630024-8.38693531 14.70478162-15.88191265 25-20Z"/><path fill="#161617" d="M574 615h2c-1.34675765 2.97977276-2.860867 5.13709317-5.1171875 7.49609375l-1.83984375 1.94335937L567.125 626.4375c-3.88184237 4.06993164-7.69721349 8.0925975-11.125 12.5625l-3-1 1.28173828-1.35766602c1.94939256-2.06673928 3.89633657-4.13577027 5.84326172-6.20483398l2.015625-2.13476562c3.17189431-3.37402483 6.27078798-6.76428206 9.2265625-10.33007813L574 615Z"/><path fill="#191918" d="M365 532c8.05161648-1.0979477 14.82480947 3.21884003 21.36328125 7.57421875L388 541v2l3 1-1 3-1.90625-1.609375C380.75865922 539.33696574 374.21997217 535.30499304 365 533v-1Z"/><path fill="#161516" d="M663 278c2.06260551 2.06260551 2.82499969 3.64193483 4.0625 6.25 3.73917297 6.8902861 9.79510979 10.04645441 16.9375 12.75v1c-5.41164999.83256154-8.54799547-1.04368289-12.80859375-4.0859375C667.66510318 290.83404735 664.90238082 287.28968225 663 283c-.15234375-2.77734375-.15234375-2.77734375 0-5Z"/><path fill="#191919" d="M482 591c-1.6187965 4.15126955-4.66613372 6.854184-7.8125 9.875-3.9989301 3.86546766-7.69102968 7.7948057-11.1875 12.125l-1-3c2.24880553-2.41778053 4.49925661-4.83402346 6.75-7.25l1.921875-2.06640625C472.44248344 598.78387844 474.21983684 596.89075872 476 595l2.328125-2.484375C480 591 480 591 482 591ZM172 811c3.10146631 1.55073315 3.65106003 4.60882022 4.875 7.6875 1.96359072 4.86785448 4.18853864 8.97136772 7.125 13.3125v2c-3-1-3-1-5-3l-3-2 1-3c-1.11896062-2.5889677-2.49141355-4.97107483-3.87109375-7.4296875C171.91842449 815.81426753 171.78147195 813.97411343 172 811Z"/><path fill="#141515" d="M680 497h2c-1.80473829 4.05385937-4.45788476 6.86602486-7.44140625 10.09765625C672.7955971 509.01883893 672.7955971 509.01883893 672 512c-1.84765625 1.82421875-1.84765625 1.82421875-4.0625 3.6875l-2.22265625 1.88671875L664 519l-1-3 1.34521484-1.42114258c2.01219961-2.12831843 4.02102186-4.25979563 6.02978516-6.39135742l2.1171875-2.23632812 2.03125-2.15820313 1.87255859-1.98364258C678.17509789 499.88564392 678.17509789 499.88564392 680 497Z"/><path fill="#181818" d="M806 214c4.66853347.51484762 7.84032147 2.63544409 11.5625 5.3125l1.70898438 1.18554688C822.47773695 222.75929869 825.31946816 225.13595987 828 228l-1 3-1.328125-1.25c-5.06826468-4.61500523-10.45210402-8.36969534-16.23046875-12.05078125C807 216 807 216 806 214Z"/><path fill="#191A19" d="m343 535-2.125 1.21484375C334.01816668 540.32335393 328.9566265 544.73675563 324 551l-1-3c12.73076635-15.5410153 12.73076635-15.5410153 20-13Z"/><path fill="#494948" d="M483 237v36h-1l-.18359375-3.59375C481.27615687 258.93280379 480.67844947 248.46544394 480 238c2-1 2-1 3-1Z"/><path fill="#181818" d="M639 543h2c-1.53613553 3.56514876-3.6838452 6.03870356-6.3125 8.875-3.33424278 3.63540019-6.5697924 7.3032939-9.6875 11.125l-3-1 1.23754883-1.31347656c1.86040159-1.97689131 3.71769844-3.95667373 5.57495117-5.93652344l1.94726562-2.06640625 1.88476563-2.01171875 1.72973633-1.84082031c1.69197529-1.83932528 1.69197529-1.83932528 3.21044922-4.06054688L639 543ZM322 143c-1.25820092 2.51640184-2.14093969 2.61551938-4.6875 3.6875-5.96629228 2.85996416-9.53564627 7.39546588-12.3125 13.3125h-2c1.11748109-7.26362709 6.27433467-11.33346542 11.68359375-15.6796875C317.35195917 142.79938921 318.97781058 142.733493 322 143Z"/><path fill="#464645" d="M728 876h37l-1 4-6-1v-1l-2.4309082.03173828c-3.62716552.04151939-7.25428108.06757515-10.8815918.09326172l-3.82617188.05078125-3.66210937.01953125-3.38012695.03173828C731 878 731 878 728 876Z"/><path fill="#181817" d="m428 701 1.43359375 1.13671875c4.31304055 3.33777212 8.65592503 6.15833514 13.48828125 8.6875C445.09940937 712.05624478 447.03054232 713.46080672 449 715c-7.84654898-.3338957-13.47646388-4.43297979-19.0625-9.75C428 703 428 703 428 701Z"/><path fill="#171717" d="M323 141c2.5215021-.08172936 5.04029917-.14083373 7.5625-.1875l2.13476562-.07617188C337.88003315 140.66467696 341.36264182 141.67827402 346 144l-1 2-3.6875-.9375C335.26923779 143.70131794 329.17054072 143.36241197 323 143v-2Z"/><path fill="#1F1F1E" d="M412 567c2.875.25 2.875.25 6 1 1.3125 1.875 1.3125 1.875 2 4 .6469565 3.08797022.6469565 3.08797022 2.875 4l2.125 1c1.75 1.625 1.75 1.625 3 3l-1 3-1.7578125-1.79296875c-5.20334541-5.28980066-5.20334541-5.28980066-10.8046875-10.14453125L412 569v-2Z"/><path fill="#161616" d="M517 552c0 3 0 3-2.01171875 5.26953125L512.3125 559.8125C508.61446974 563.39513073 505.1879183 566.96197015 502 571l-1-3c2.28702909-2.48348017 4.58038832-4.96102575 6.875-7.4375l1.97265625-2.14257812 1.89453125-2.04101563 1.74560547-1.88842773C515 553 515 553 517 552Z"/><path fill="#1A1A1A" d="m806 819 3 1c-4.6382175 4.77876954-9.4475917 9.29839447-15 13h-3v-2c1.73548169-1.44526736 3.53975963-2.8087222 5.375-4.125l3.0234375-2.1953125C802 823 802 823 804 823l2-4Z"/><path fill="#151414" d="M593 594h2c-1.69417416 4.30955552-4.85925165 7.26989943-8 10.5625-1.08521148 1.14535882-2.16861465 2.29243432-3.25 3.44140625l-1.453125 1.52563477C580.78377818 611.17879325 580.78377818 611.17879325 579 614l-3-1c1.28062485-1.7074998 2.61767557-3.37373596 4-5h2l.78125-1.77734375c1.31381472-2.39602748 2.7405901-3.91177177 4.71875-5.78515625 2.22096733-2.11274223 3.77742417-3.85363626 5.5-6.4375Z"/><path fill="#222322" d="M206.2421875 220.3125 208 221l-1.57421875 1.1015625c-3.45867439 2.49331426-6.53046731 4.79202033-9.11328125 8.2109375C195 233 195 233 192.1875 233.875L190 234c3.18363375-3.89995135 6.43720116-7.5677228 10.125-11l1.9453125-1.8125C204 220 204 220 206.2421875 220.3125Z"/><path fill="#151515" d="M611 574h2c-1.38193528 3.05516083-3.00476308 5.32959161-5.25 7.8125l-1.86328125 2.08203125L604 586c-1.14967801 1.33001966-2.2958399 2.66309162-3.4375 4L598 593l-3-1 1.21484375-1.14453125c4.7284322-4.57832324 8.81417426-9.51219918 12.8671875-14.6953125L611 574Z"/><path fill="#181818" d="M718 280c.65625 1.75390625.65625 1.75390625 1 4-2.81330432 5.70601643-7.56987965 9.88270869-13 13-2.2109375-.37890625-2.2109375-.37890625-4-1l1.828125-1.13671875C710.301441 290.71827084 714.17128549 286.70025039 718 280Z"/><path fill="#181918" d="M818 799h2c-.48796058 5.09647717-2.30638503 8.66704554-5.0625 12.875l-1.14257812 1.796875C812.87215204 815.12027322 811.93729737 816.56096031 811 818c-.67578125-1.69140625-.67578125-1.69140625-1-4 1.14453125-2.40234375 1.14453125-2.40234375 2.8125-4.9375 2.13722278-3.28452052 3.83629294-6.37798904 5.1875-10.0625Z"/><path fill="#1C1D1C" d="m627 429 2 1c-1.9156265 2.08429801-3.83246061 4.16746303-5.75 6.25l-1.6328125 1.77734375C618.80318147 441.08156981 615.96618844 444.09140745 613 447c.59376235-3.47003969 1.83455502-5.28831876 4.1875-7.875l1.890625-2.0859375C621.66251818 434.29708437 624.30292514 431.63129255 627 429Z"/><path fill="#181818" d="M702 144c6.24403306.58084028 9.13568194 2.92853549 13.25 7.5 1.60593034 2.2941862 2.34513563 3.76716549 2.75 6.5h-2c-1.2265625-1.57421875-1.2265625-1.57421875-2.625-3.6875-2.7982791-3.90650844-5.65766392-6.09412145-9.8359375-8.40234375L702 145v-1Z"/><path fill="#151514" d="m450 715 21 1v2c-2.93804996.08086376-5.87388075.1404283-8.8125.1875l-2.52539062.07617188-2.43164063.02929687-2.23754883.04760742C453 718 453 718 450 715Z"/><path fill="#1D1D1D" d="M316 565h2l1 18-1-2h-2v-16Z"/><path fill="#171716" d="M784 836c-1 2-1 2-3.29296875 2.8515625C771.11467169 841.41470311 771.11467169 841.41470311 766 841c2.76055022-1.84036681 4.74598117-2.68344114 7.875-3.625l2.5546875-.7890625C779.04224458 835.99036978 781.33041371 835.89474749 784 836Z"/><path fill="#141414" d="M852 805h1c-.34467627 7.23820173-2.10214991 11.91590189-6 18-1.39214652-4.17643955.29335734-6.83437793 1.9375-10.6875l.88085938-2.12695312C850.53710313 808.45349225 851.26745331 806.72626219 852 805Z"/><path fill="#181918" d="M703 423c2.55570992 1.0007622 3.79700949 1.68423699 5.30078125 4.0234375L709.3125 429.375l1.05078125 2.3359375c.7068372 2.5411448.50549948 3.83405631-.36328125 6.2890625-1.67425816-2.51138725-2.86022007-4.75715606-4.0625-7.5l-1.03515625-2.34375C704.19512275 426.46626736 703.57932744 424.73798233 703 423Z"/><path fill="#161616" d="m305 284 2.1875 2.25c2.50154985 2.44595985 5.07077847 4.585483 7.8125 6.75 1.0173873.98230498 2.02596117 1.97469597 3 3-5.22576133-.31671281-8.63673063-3.21065608-12-7-.9375-2.875-.9375-2.875-1-5Z"/><path fill="#181918" d="M224 211c-2.119212 1.36405618-4.24448118 2.71631775-6.375 4.0625l-1.828125 1.18164062C214.23507443 217.22460432 212.62007786 218.11916075 211 219l-2-1c3.93407516-4.40616418 8.86048978-9.08689492 15-7Z"/><path fill="#151515" d="m668 151 2 1-1.0234375 1.7578125C666.50306326 158.09001059 664.3632363 162.16670766 663 167h-1c-.50126942-6.14055043.68563565-9.02845347 4-14l2-2Z"/><path fill="#141414" d="M847 257h2c4.59225513 10.37357631 4.59225513 10.37357631 4 16-2.36775721-2.36775721-2.99896496-4.29711338-4.125-7.4375l-1.0703125-2.93359375C847 260 847 260 847 257Z"/><path fill="#4C4C4B" d="M482 172h1v28h-1c-.16768291-2.93744524-.33418858-5.87494904-.5-8.8125l-.14453125-2.52539062-.13671875-2.43164063-.12695312-2.23754883C480.90237689 179.88059184 481.38643523 176.0648666 482 172Z"/><path fill="#1E1F1E" d="M701 298c-3.63195496 2.42130331-5.38349348 2.21022785-9.6875 2.125l-3.57421875-.0546875L685 300v-2c1.91583647-.1958009 3.83272539-.38132214 5.75-.5625l3.234375-.31640625c2.65703704-.10669449 4.51523072.0596023 7.015625.87890625Z"/><path fill="#1D1D1D" d="M170 268h2c-.51958285 4.37934119-1.05675742 8.68803391-2 13h-2l-1 3c.59015185-5.50808397 1.56663769-10.64878069 3-16Z"/><path fill="#111110" d="m514.5 140.6875 2.90625-.05078125C520 141 520 141 523 144l-17-1c3.33397306-2.22264871 4.59514891-2.29675463 8.5-2.3125Z"/><path fill="#191919" d="M230 832c5.05255964.63156995 9.29593201 2.13459373 14 4v2c-5.34844008-.53484401-9.35796103-2.46690767-14-5v-1Z"/><path fill="#131213" d="M168 793h1c.5321441 2.08047297 1.05031786 4.16452293 1.5625 6.25l.87890625 3.515625c.51039339 2.95528483.5885554 4.47871601-.44140625 7.234375-3.61601216-5.57468542-3.30720059-10.60567654-3-17Z"/><path fill="#131313" d="m545 647 1 3-9 9-2-1c1.47883192-1.64613412 2.95807477-3.29189908 4.4375-4.9375l2.49609375-2.77734375C544 648 544 648 545 647Z"/><path fill="#151515" d="M239.1875 203.9375 243 204c-2.67550292 2.67550292-4.94879894 2.83209389-8.625 3.625l-3.6015625.7890625L228 209c3.57751843-3.82424383 5.94635096-5.14842048 11.1875-5.0625Z"/><path fill="#161616" d="m641 414 3 1-1.609375 1.390625C638.81675301 419.49493717 635.28145941 422.58181312 632 426c.70697416-4.77207556 3.58998504-7.71816822 7.0625-10.875L641 414Z"/><path fill="#111011" d="M359 274h1c.59131554 5.6766292-.58160195 8.69821089-3.61328125 13.49609375L355 289h-3l1.0234375-1.50390625C355.94601488 283.04465363 357.81021767 279.19177746 359 274Z"/><path fill="#1C1C1B" d="m414 687 1.42578125 1.2421875L417.3125 689.875l1.86328125 1.6171875C421.13498212 693.1640447 421.13498212 693.1640447 424 695v2c-3.2548802-.58021778-4.93652408-1.52647141-7.25-3.875l-1.578125-1.5546875C414 690 414 690 414 687Z"/><path fill="#171818" d="m609 448 3 1-2 3h-2l-.8125 1.875C606 456 606 456 603 458c.50522222-4.37859255 3.17827222-6.81651224 6-10Z"/><path fill="#131313" d="m350 291 2 1c-4.67460782 4.55774263-7.48277089 5.66290194-14 6 2.20187672-2.20187672 4.22885682-3.28178929 7-4.6875l2.6875-1.38671875L350 291Z"/><path fill="#121212" d="M784 240c5.31027254 1.46032495 9.46330032 3.98320986 14 7-3 1-3 1-5.4453125-.14453125L789.875 245.1875l-2.6953125-1.64453125C785 242 785 242 784 240Z"/><path fill="#111" d="M204 801c3.32851213 2.98418329 5.3205729 5.84562769 7 10l-1 3c-5.55580866-8.261959-5.55580866-8.261959-6-13Z"/><path fill="#141414" d="M352 151c3.77350192 1.70743165 5.22440837 3.182478 7 7 .1875 2.8125.1875 2.8125 0 5-2.23574822-2.23574822-3.24368358-4.28966629-4.625-7.125l-1.3515625-2.7578125L352 151Z"/><path fill="#212121" d="M240 872c4.97093824.41153737 9.44508386.79600832 14 3v1c-1.5843317-.08768248-3.16753567-.19587329-4.75-.3125l-2.671875-.17578125C243.67696226 874.9358819 242.20774393 873.92403852 240 872Z"/><path fill="#181717" d="m661 519 1 3-7 7-1-3 7-7Z"/><path fill="#1D1D1D" d="M672 510v2c-1.75 1.7265625-1.75 1.7265625-4 3.625l-2.25 1.9140625L664 519l-1-3c.92786789-1.00894372 1.86768433-2.00690907 2.8125-3l1.58203125-1.6875C669 510 669 510 672 510Z"/><path fill="#121111" d="M204 275h1c-.59453303 9.59453303-.59453303 9.59453303-4 13 .11509661-1.41750563.24253658-2.83401169.375-4.25l.2109375-2.390625C202.01507113 278.914123 202.78600638 277.15163097 204 275Z"/><path fill="#131413" d="M482 591c-1.5830577 4.2742558-4.50568404 6.26531794-8 9 .46081677-4.14735092 3.51587064-9 8-9Z"/><path fill="#181717" d="M691 412c2.70931419.15481795 4.46584039.48172081 6.4453125 2.40234375C698.67679642 415.89771708 699.8429837 417.4462924 701 419c-3.566745 0-4.10543677-.63691955-6.6875-2.9375l-1.88671875-1.65234375L691 413v-1Z"/><path fill="#161616" d="m204 220 4 1-9 7c0-3 0-3 2.25-5.75L204 220Z"/><path fill="#151414" d="M774 203c1.41655793-.0272415 2.83327045-.04650467 4.25-.0625l2.390625-.03515625c2.26628502.09380319 4.1882645.46524562 6.359375 1.09765625v2c-1.41750563-.11509661-2.83401169-.24253658-4.25-.375l-2.390625-.2109375C777.914123 204.98492887 776.15163097 204.21399362 774 203Z"/><path fill="#161616" d="M683 143c-2.15266842 2.15266842-3.84773744 2.93474462-6.625 4.125l-2.4765625 1.0703125L672 149c2.39840224-5.53477439 5.17499953-6.25888891 11-6Z"/><path fill="#1E1E1E" d="m245 838 13 1v1c-8.42857143 1.42857143-8.42857143 1.42857143-13-1v-1Z"/><path fill="#151615" d="m565 497 3 1-7 8-1-3c1.40445835-2.2636564 3.1967913-4.0208685 5-6Z"/><path fill="#121211" d="m627 429 2 1-8 9-1-3 7-7Z"/><path fill="#191818" d="m488 285 8 8-2 1c-4.8-3.32307692-4.8-3.32307692-5.8125-6.75L488 285Z"/><path fill="#1C1B1B" d="M484 713c-4.22949995 2.41685712-7.12335991 3.34833144-12 3 3.38386636-3.38386636 7.43568675-4.75550509 12-3Z"/><path fill="#121111" d="M620 564h2c-1.37154504 2.95409701-2.98863724 5.44008376-5 8l-3-1c.95117134-1.1725131 1.91117009-2.33787015 2.875-3.5l1.6171875-1.96875L620 564Z"/><path fill="#121212" d="M321 552h2c-.45261358 1.43931117-.91232979 2.87638999-1.375 4.3125l-.7734375 2.42578125C320 561 320 561 318 564c.11458693-1.43836751.24209116-2.87570966.375-4.3125l.2109375-2.42578125C319 555 319 555 321 552Z"/><path fill="#1E1E1D" d="M202 787h1l1 13c-2.43773135-2.43773135-2.61487376-3.61088906-3-7 .4375-3.3125.4375-3.3125 1-6Z"/><path fill="#101111" d="m599 460 2 1c-1.33332095 3.99996286-3.4957827 4.83782337-7 7 .54226981-3.79588866 2.20127563-5.47211993 5-8Z"/><path fill="#161616" d="M302 273h1l2 10-2 1c-1.98362069-2.91708924-1.9876191-4.12380904-1.625-7.75L302 273Z"/><path fill="#161515" d="M524 144c5.53846154.49230769 5.53846154.49230769 7.875 3.0625L533 149c-3.48305042-.64500934-6.06202164-2.04134776-9-4v-1Z"/><path fill="#181717" d="M186 837c5.57142857 5.14285714 5.57142857 5.14285714 6 9-5.57142857-5.14285714-5.57142857-5.14285714-6-9Z"/><path fill="#111212" d="m526 540 3 1-6 7-1-3c1.9375-2.6875 1.9375-2.6875 4-5Z"/><path fill="#222" d="m521 546 1 3c-2 3-2 3-4.125 3.6875L516 553c1.29299694-2.88437779 2.65941363-4.87219421 5-7Z"/><path fill="#3F3D3D" d="M456 239h17v1h-17v-1Z"/><path fill="#3F3E3F" d="M732 239h13v1h-13v-1Z"/><path fill="#3F3E3E" d="M428 239h13v1h-13v-1Z"/><path fill="#403E3E" d="M371 239h11v1h-11v-1Z"/><path fill="#3D3C3B" d="M327 301h7l-2 2c-2.625-.375-2.625-.375-5-1v-1Z"/><path fill="#3C3B3B" d="M298 169h1v8h-1c-.38063221-2.3260857-.71269945-4.66055264-1-7l1-1ZM351 528h8v1h-8v-1Z"/><path fill="#3C3B3A" d="M298 242h1v7h-1v-7Z"/><path fill="#403E3D" d="M612 239h7v1h-7v-1Z"/><path fill="#403F3F" d="M404 239h7v1h-7v-1Z"/><path fill="#3B3A3A" d="M236 832h4v2l-4-2Z"/><path fill="#3D3B3B" d="M511 301h5l-4 2-1-2Z"/><path fill="#3B3A39" d="M659 273h1v5l-2-3 1-2Z"/><path fill="#3F3E3D" d="M723 239h6v1h-6v-1Z"/><path fill="#3F3E3E" d="M620 239h6v1h-6v-1Z"/><path fill="#403E3E" d="M396 239h6v1h-6v-1Z"/><path fill="#3F3F3E" d="M268 239h6v1h-6v-1Z"/><path fill="#3C3B3B" d="m480 169 2 1-1 3-1-4Z"/><path fill="#3C3D3A" d="M819 401h2l-1 4-1-4Z"/><path fill="#3D3C3C" d="m688 301 4 1-3 1-1-2Z"/><path fill="#3C3B3B" d="M298 252h1v5h-1v-5Z"/><path fill="#3F3F3D" d="M444 239h5v1h-5v-1Z"/><path fill="#3F3E3C" d="m788 203 4 1-2 1-2-2Z"/><path fill="#3B3B3A" d="M298 192h1v5h-1v-5ZM298 186h1v5h-1v-5Z"/><path fill="#3F3E3C" d="m249 877 4 1Z"/><path fill="#3C3C3C" d="m321 596 2 1-1 2-1-3Z"/><path fill="#3D3D3D" d="m314 571 1 4Z"/><path fill="#3B3B3A" d="m820 537 1 4Z"/><path fill="#3C3C3C" d="m701 416 3 1h-3v-1Z"/><path fill="#3F3D3C" d="m640 410 2 1-1 2-1-3Z"/><path fill="#3E3D3C" d="m692 408 3 1-3 1v-2Z"/><path fill="#3C3C3C" d="m820 311 1 4ZM817 281v3Z"/><path fill="#3D3C3C" d="m482 280 1 2-3-1 2-1Z"/><path fill="#3E3E3D" d="m800 253 2 2-2 1v-3Z"/><path fill="#3F3E3D" d="m476 239 4 1Z"/><path fill="#3C3C3B" d="m254 239 4 1Z"/><path fill="#3B3B3A" d="m480 192 1 4Z"/><path fill="#3C3C3B" d="m298 180 1 4ZM480 175l1 4Z"/><path fill="#3E3E3D" d="M310 144h2v2h-2v-2Z"/><path fill="#3F3D3D" d="m769 877 3 1Z"/><path fill="#3D3D3C" d="m240 875 3 1Z"/><path fill="#3D3E3D" d="m784 832 3 1Z"/><path fill="#3A3939" d="m461 719 3 1Z"/><path fill="#3B3939" d="M440 714h2l-1 2-1-2Z"/><path fill="#403E3F" d="m360 528 3 1Z"/><path fill="#3C3A3A" d="m321 300 3 1Z"/><path fill="#3E3D3C" d="m767 239 3 1Z"/><path fill="#42403F" d="m576 239 3 1Z"/><path fill="#40403F" d="m452 239 3 1Z"/><path fill="#403E3E" d="m388 239 3 1Z"/><path fill="#3F3D3D" d="m367 239 3 1Z"/><path fill="#3E3C3D" d="m363 239 3 1Z"/><path fill="#41403F" d="m264 239 3 1Z"/><path fill="#3F3D3D" d="m784 202 3 1Z"/><path fill="#3E403E" d="m244 200 3 1Z"/><path fill="#3E3D3D" d="m481 164 1 2-2-1 1-1Z"/><path fill="#3C3D3C" d="m659 161 2 1-2 1v-2Z"/><path fill="#3E3D3C" d="m244 876 2 1Z"/><path fill="#3E3E3D" d="m209 862 2 1Z"/><path fill="#3D3C3C" d="m194 851 2 1Z"/><path fill="#3D3D3C" d="m778 832 2 1Z"/><path fill="#3E3E3D" d="m803 817 2 1Z"/><path fill="#3E3D3C" d="m168 817 2 1Z"/><path fill="#3B3A39" d="m468 719 2 1Z"/><path fill="#3C3C3B" d="m534 663 2 1Z"/><path fill="#3A3A3B" d="m819 644 2 1Z"/><path fill="#3D3B3A" d="m382 536 2 1Z"/><path fill="#3D3D3B" d="m373 531 2 1Z"/><path fill="#3E3D3C" d="m344 530 2 1Z"/><path fill="#3D3B3A" d="m679 503 2 1Z"/><path fill="#3D3E3B" d="m693 410 2 1Z"/><path fill="#3F3F3F" d="m657 403 2 1Z"/><path fill="#3E3E3E" d="m694 301 2 1Z"/><path fill="#3D3B3A" d="m699 300 2 1Z"/><path fill="#3C3C3B" d="m339 300 2 1Z"/><path fill="#3D3D3D" d="m702 299 2 1Z"/><path fill="#3D3C3C" d="m787 245 2 1Z"/><path fill="#403D3E" d="m392 239 2 1Z"/><path fill="#3F3D3E" d="m384 239 2 1Z"/><path fill="#3E3D3C" d="m260 239 2 1Z"/><path fill="#3D3C3C" d="m814 216 2 1Z"/><path fill="#3F3E3D" d="m780 201 2 1Z"/><path fill="#3D3C3C" d="m656 171 2 1Z"/></svg>